<svg id="Layer_1" data-name="Layer 1" xmlns="http://www.w3.org/2000/svg" viewBox="0 0 70 40.94"><defs><style>.cls-1{fill:#010101;}</style></defs><path class="cls-1" d="M297.63,441.43c-6,0-12.44-1.82-19-5.4a73.1,73.1,0,0,1-13.49-9.65,7.19,7.19,0,0,1,0-10.85,73.59,73.59,0,0,1,13.49-9.64c6.6-3.58,13-5.4,19-5.4s12.44,1.82,19,5.4a73.59,73.59,0,0,1,13.49,9.64h0a7.19,7.19,0,0,1,0,10.85A73.1,73.1,0,0,1,316.67,436C310.07,439.61,303.66,441.43,297.63,441.43Zm0-38.15c-12.76,0-24.69,9-30.67,14.33a4.4,4.4,0,0,0,0,6.69c6,5.36,17.91,14.34,30.67,14.34s24.69-9,30.67-14.34a4.4,4.4,0,0,0,0-6.69h0C322.32,412.26,310.39,403.28,297.63,403.28Z" transform="translate(-262.63 -400.49)"/><circle class="cls-1" cx="35" cy="20.47" r="11.23"/></svg>