<svg id="Layer_1" data-name="Layer 1" xmlns="http://www.w3.org/2000/svg" viewBox="0 0 70 52.56"><defs><style>.cls-1{fill:#010101;}</style></defs><path class="cls-1" d="M332,418a7.54,7.54,0,0,0-1.83-2.48A73.86,73.86,0,0,0,317,406l-2.06,2.06.62.34a70.08,70.08,0,0,1,12.79,9.17,4.4,4.4,0,0,1,0,6.69c-6,5.36-17.91,14.34-30.67,14.34a32.8,32.8,0,0,1-11.17-2.11l-2.17,2.17a36.43,36.43,0,0,0,13.34,2.73c6,0,12.44-1.82,19-5.4a73.1,73.1,0,0,0,13.49-9.65,7.23,7.23,0,0,0,2.47-5.42A7,7,0,0,0,332,418ZM265.42,421a4.48,4.48,0,0,1,1.54-3.35c6-5.35,17.91-14.33,30.67-14.33a32.79,32.79,0,0,1,11.17,2.1l2.17-2.16a36.19,36.19,0,0,0-13.34-2.73c-6,0-12.44,1.82-19,5.4a73.59,73.59,0,0,0-13.49,9.64,7.19,7.19,0,0,0,0,10.85,72.88,72.88,0,0,0,13.21,9.49l2.06-2.06A69.66,69.66,0,0,1,267,424.3,4.47,4.47,0,0,1,265.42,421Z" transform="translate(-262.63 -394.68)"/><path class="cls-1" d="M303.06,411.13,287.8,426.39a11.23,11.23,0,0,1,15.26-15.26Z" transform="translate(-262.63 -394.68)"/><path class="cls-1" d="M308.86,421a11.23,11.23,0,0,1-16.66,9.83l15.26-15.26A11.19,11.19,0,0,1,308.86,421Z" transform="translate(-262.63 -394.68)"/><path class="cls-1" d="M271.85,446.74h0a1.69,1.69,0,0,1,0-2.39L321,395.17a1.69,1.69,0,0,1,2.39,0h0a1.7,1.7,0,0,1,0,2.4l-49.17,49.17A1.69,1.69,0,0,1,271.85,446.74Z" transform="translate(-262.63 -394.68)"/></svg>