<?xml version="1.0" encoding="UTF-8" standalone="no"?>
<svg
   xmlns:dc="http://purl.org/dc/elements/1.1/"
   xmlns:cc="http://creativecommons.org/ns#"
   xmlns:rdf="http://www.w3.org/1999/02/22-rdf-syntax-ns#"
   xmlns:svg="http://www.w3.org/2000/svg"
   xmlns="http://www.w3.org/2000/svg"
   xmlns:sodipodi="http://sodipodi.sourceforge.net/DTD/sodipodi-0.dtd"
   xmlns:inkscape="http://www.inkscape.org/namespaces/inkscape"
   version="1.1"
   id="svg2"
   xml:space="preserve"
   width="1438.64"
   height="839.33331"
   viewBox="0 0 1438.64 839.33331"
   sodipodi:docname="Woodpecker.eps"><metadata
     id="metadata8"><rdf:RDF><cc:Work
         rdf:about=""><dc:format>image/svg+xml</dc:format><dc:type
           rdf:resource="http://purl.org/dc/dcmitype/StillImage" /></cc:Work></rdf:RDF></metadata><defs
     id="defs6" /><sodipodi:namedview
     pagecolor="#ffffff"
     bordercolor="#666666"
     borderopacity="1"
     objecttolerance="10"
     gridtolerance="10"
     guidetolerance="10"
     inkscape:pageopacity="0"
     inkscape:pageshadow="2"
     inkscape:window-width="640"
     inkscape:window-height="480"
     id="namedview4" /><g
     id="g10"
     inkscape:groupmode="layer"
     inkscape:label="ink_ext_XXXXXX"
     transform="matrix(1.3333333,0,0,-1.3333333,0,839.33333)"><g
       id="g12"
       transform="scale(0.1)"><path
         d="m 7236.48,3688.34 c 0,0 86.66,-473.35 -626.68,-1240.01 0,0 -1193.34,-60 -1400,-1073.33 0,0 -33.32,-713.328 546.68,-1053.328 0,0 -1233.34,-260.0001 -2426.68,653.328 0,0 -813.32,1420 -533.32,2366.66 l 1180,886.68 1693.32,440 1086.68,-420 480,-560"
         style="fill:#ffffff;fill-opacity:1;fill-rule:nonzero;stroke:none"
         id="path14" /><path
         d="m 5124.8,4080 c 0,0 -605,5 -1455,-440 l -190,130 930,710 1300,200 70,-340 -655,-260"
         style="fill:#c8c7c7;fill-opacity:1;fill-rule:nonzero;stroke:none"
         id="path16" /><path
         d="m 6534.8,3190 c 0,0 -520,-440 -1630,-30 0,0 -1080,305 -1965,-415 l -80,295 460,185 1125,285 1470,85 620,-405"
         style="fill:#c8c7c7;fill-opacity:1;fill-rule:nonzero;stroke:none"
         id="path18" /><path
         d="m 5489.8,2515 c 0,0 -1490,-975 75,-2130 l 45,-85 -530,-5 -565,355 -50,1050 585,770 440,45"
         style="fill:#c8c7c7;fill-opacity:1;fill-rule:nonzero;stroke:none"
         id="path20" /><path
         d="m 3764.8,760 c 0,0 -575,930 -700,1930 0,0 415,-1460 1035,-2090 l -165,-10 -170,170"
         style="fill:#c8c7c7;fill-opacity:1;fill-rule:nonzero;stroke:none"
         id="path22" /><path
         d="m 4084.8,575 c 0,0 -555,945 235,1705 0,0 -850,-525 -430,-1620 l 195,-85"
         style="fill:#c8c7c7;fill-opacity:1;fill-rule:nonzero;stroke:none"
         id="path24" /><path
         d="m 6769.8,3765 c 0,0 260,-155 400,-365 l 60,95 -60,285 -395,365 -5,-380"
         style="fill:#c8c7c7;fill-opacity:1;fill-rule:nonzero;stroke:none"
         id="path26" /><path
         d="m 7223.14,3868.34 c 0,0 173.32,-593.33 -633.34,-1426.67 0,0 1920,-153.33 3126.68,120 0,0 740.02,146.67 853.32,220 0,0 -2086.66,273.33 -3253.32,1119.99 l -93.34,-33.32"
         style="fill:#fbc707;fill-opacity:1;fill-rule:nonzero;stroke:none"
         id="path28" /><path
         d="m 9243.14,2621.66 c 0,0 -1100,-180 -2526.66,-53.33 L 6943.14,2855 c 0,0 1206.66,-260.01 2160,-213.34 l 140,-20"
         style="fill:#f3661f;fill-opacity:1;fill-rule:nonzero;stroke:none"
         id="path30" /><path
         d="m 10316.5,2721.66 c 0,0 -1406.7,20 -3053.36,760 l -66.66,400 226.66,-80 c 0,0 1193.34,-733.33 3066.66,-993.33 l -40,-73.33 -133.3,-13.34"
         style="fill:#fffa99;fill-opacity:1;fill-rule:nonzero;stroke:none"
         id="path32" /><path
         d="m 6814.8,2730 c 0,0 -1070,195 -1895,-635 0,0 -725,-785 190,-1745 l -20,-65 -855,210 c 0,0 -615,985 100,1695 0,0 660,725 2565,670 l -85,-130"
         style="fill:#ed1c24;fill-opacity:1;fill-rule:nonzero;stroke:none"
         id="path34" /><path
         d="m 7229.8,3515 c 0,0 -473.32,500 -653.32,593.34 0,0 -573.34,373.32 -1220,253.32 0,0 -600,-93.33 -993.34,-340 0,0 -1040,-513.33 -1600,-680 0,0 -1673.34,-586.66 -2519.999,1113.34 0,0 -319.9965,733.34 33.336,1620 0,0 246.66,-1213.34 1033.323,-1413.34 0,0 -173.32,280 -113.32,693.34 0,0 646.66,-726.67 1453.32,-773.34 0,0 -226.66,366.68 -226.66,653.34 0,0 713.32,-646.66 2146.66,-140 0,0 1760,280 2646.68,-1213.34 L 7229.8,3515"
         style="fill:#ed1c24;fill-opacity:1;fill-rule:nonzero;stroke:none"
         id="path36" /><path
         d="m 6679.8,4075 c 0,0 -735,835 -2285,140 0,0 -1380,-615 -2360,195 0,0 245,-365 550,-545 0,0 -1555,-90 -2134.995,1075 0,0 145,-1140 1414.995,-1645 0,0 700,-150 1430,210 l 785,365 c 0,0 885,540 1555,500 l 845,-295 h 200"
         style="fill:#a62026;fill-opacity:1;fill-rule:nonzero;stroke:none"
         id="path38" /><path
         d="m 2774.8,3935 c 0,0 -715,5 -1270,390 0,0 295,-395 920,-565 l 515,35 -165,140"
         style="fill:#a62026;fill-opacity:1;fill-rule:nonzero;stroke:none"
         id="path40" /><path
         d="m 6689.8,4315 c 0,0 -930,910 -2180,565 0,0 -1190,-460 -1890,65 0,0 505,-725 1925,-205 0,0 1005,380 2080,-400 l 65,-25"
         style="fill:#f89b5c;fill-opacity:1;fill-rule:nonzero;stroke:none"
         id="path42" /><path
         d="m 1334.8,5055 c 0,0 565,-720 1660,-660 l 80,-75 c 0,0 -1190,-125 -1740,735"
         style="fill:#f89b5c;fill-opacity:1;fill-rule:nonzero;stroke:none"
         id="path44" /><path
         d="m 259.805,5655 c 0,0 195,-1035 1404.995,-1250 l 65,-80 c 0,0 -1119.995,50 -1474.995,1250 l 5,80"
         style="fill:#f89b5c;fill-opacity:1;fill-rule:nonzero;stroke:none"
         id="path46" /><path
         d="m 4334.8,495 c 0,0 -900,1415 680,2045 l -20,-30 c 0,0 -1360,-825 -150,-2175 l -510,160"
         style="fill:#a62026;fill-opacity:1;fill-rule:nonzero;stroke:none"
         id="path48" /><path
         d="m 6969.8,3765 c 0,0 -305,565 -1155,645 0,0 -640,55 -1420,-335 0,0 -1450,-820 -2300,-765 0,0 -1494.995,5 -1849.995,1515 0,0 -135,515 20,970 0,0 130,-1085 1364.995,-1355 0,0 -330,315 -340,705 0,0 730,-770 1680,-720 0,0 -370,295 -450,650 0,0 595,-610 1900,-155 0,0 1605,575 2730,-1075 0,0 1085,-810 3170,-1095 0,0 -225,-75 -585,-85 0,0 -365,-110 -970,-155 0,0 -1765,-115 -2130,-5 0,0 -1095,55 -1480,-865 0,0 -320,-795 365,-1270 0,0 -1180,-160 -2090,710 l -110,-15 c 0,0 835,-1250 2725,-815 0,0 -985,475 -680,1320 0,0 285,775 1230,725 0,0 1455,-230 3170,205 0,0 735,75 1025,320 0,0 -1965,185 -3445,1170 0,0 -1000,1805 -2990,1125 0,0 -1225,-465 -2050,435 0,0 -70,-465 135,-860 0,0 -885,330 -1345,945 0,0 -50,-365 60,-765 0,0 -784.995,530 -779.995,1425 0,0 -500,-355 -345.0003,-1525 0,0 220.0003,-1635 2054.9953,-1630 l 818.34,161.66 c 0,0 546.66,178.34 1501.66,713.34 0,0 670,385 1400,340 0,0 625,-15 1165,-590"
         style="fill:#110b09;fill-opacity:1;fill-rule:nonzero;stroke:none"
         id="path50" /><path
         d="m 7129.8,3900 c 0,0 330,-465 -565,-1420 l 25,-65 c 0,0 940,810 650,1435 l -110,50"
         style="fill:#110b09;fill-opacity:1;fill-rule:nonzero;stroke:none"
         id="path52" /><path
         d="m 9759.8,2660 c 0,0 -2170,-50 -2810,245 l -50,-80 c 0,0 720,-255 2775,-215 l 85,50"
         style="fill:#110b09;fill-opacity:1;fill-rule:nonzero;stroke:none"
         id="path54" /><path
         d="m 2949.8,3410 c 0,0 -55,-180 125,-155 0,0 445,35 1395,535 0,0 915,615 1310,590 0,0 525,-10 1000,-405 0,0 160,-200 40,-500 0,0 -150,-395 -820,-435 0,0 -455,-25 -905,190 0,0 -765,385 -1970,-170 0,0 -110,-50 -125,-205 0,0 25,-1950 1555,-2855 0,0 -2415,680 -2875,3225 l 550,15 720,170"
         style="fill:#110b09;fill-opacity:1;fill-rule:nonzero;stroke:none"
         id="path56" /><path
         d="m 2629.8,3175 c 0,0 -453.33,-113.34 -740,-46.67 0,0 206.67,-1406.67 1406.67,-2326.67 0,0 -826.67,786.66 -986.67,2080 0,0 120,-566.66 540,-1146.66 0,0 -306.66,793.34 -220,1440"
         style="fill:#4f4c4c;fill-opacity:1;fill-rule:nonzero;stroke:none"
         id="path58" /><path
         d="m 5644.8,4205 c 0,0 377.5,80 947.5,-642.5 l -92.5,45 c 0,0 -82.5,-275 -647.5,-272.5 0,0 -175,322.5 -737.5,490 0,0 145,-5 315,-62.5 0,0 70,307.5 480,327.5 0,0 -77.5,95 -265,115"
         style="fill:#fbc707;fill-opacity:1;fill-rule:nonzero;stroke:none"
         id="path60" /><path
         d="m 6332.58,3837.56 c 66.03,-121.26 -16.24,-293.47 -183.72,-384.66 -167.47,-91.16 -356.77,-66.79 -422.77,54.46 -66.02,121.27 16.25,293.47 183.73,384.65 167.48,91.17 356.76,66.79 422.76,-54.45"
         style="fill:#fff766;fill-opacity:1;fill-rule:nonzero;stroke:none"
         id="path62" /><path
         d="m 6283.13,3807.01 c 53.8,-98.82 -13.24,-239.16 -149.72,-313.47 -136.48,-74.3 -290.75,-54.44 -344.54,44.38 -53.8,98.82 13.24,239.16 149.74,313.47 136.48,74.29 290.74,54.43 344.52,-44.38"
         style="fill:#110b09;fill-opacity:1;fill-rule:nonzero;stroke:none"
         id="path64" /><path
         d="m 6109.8,3868.33 c 0,-51.54 -41.77,-93.33 -93.32,-93.33 -51.55,0 -93.34,41.79 -93.34,93.33 0,51.55 41.79,93.33 93.34,93.33 51.55,0 93.32,-41.78 93.32,-93.33"
         style="fill:#ffffff;fill-opacity:1;fill-rule:nonzero;stroke:none"
         id="path66" /></g></g></svg>
