<svg xmlns="http://www.w3.org/2000/svg" viewBox="0 0 150 87.51"><defs><style>.cls-1{fill:#fff;}.cls-2{fill:#c7c8ca;}.cls-3{fill:#ffcb05;}.cls-4{fill:#f47929;}.cls-5{fill:#fff9ae;}.cls-6{fill:#ed1c24;}.cls-7{fill:#a72428;}.cls-8{fill:#f9a870;}.cls-9{fill:#58595b;}.cls-10{fill:#fff685;}</style></defs><g id="EYE"><path class="cls-1" d="M661.11,368.23s1.21,6.58-8.71,17.24c0,0-16.59.83-19.46,14.92,0,0-.47,9.92,7.6,14.64,0,0-17.15,3.62-33.74-9.08,0,0-11.31-19.74-7.41-32.9l16.4-12.33,23.54-6.11,15.11,5.84Z" transform="translate(-560.51 -331.99)"/><path class="cls-2" d="M631.75,362.79s-8.41-.07-20.22,6.11l-2.64-1.8,12.92-9.87,18.08-2.78,1,4.72Z" transform="translate(-560.51 -331.99)"/><path class="cls-2" d="M651.36,375.16s-7.23,6.12-22.66.42c0,0-15-4.24-27.32,5.77l-1.11-4.11,6.39-2.57,15.64-4,20.44-1.18Z" transform="translate(-560.51 -331.99)"/><path class="cls-2" d="M636.83,384.54s-20.71,13.56,1,29.61l.63,1.19-7.37.07-7.86-4.94-.69-14.6,8.13-10.7Z" transform="translate(-560.51 -331.99)"/><path class="cls-2" d="M612.85,408.94s-8-12.93-9.73-26.83c0,0,5.77,20.3,14.39,29.06l-2.3.13Z" transform="translate(-560.51 -331.99)"/><path class="cls-2" d="M617.3,411.51s-7.72-13.13,3.26-23.7c0,0-11.81,7.3-6,22.52Z" transform="translate(-560.51 -331.99)"/><path class="cls-2" d="M654.62,367.17a19.84,19.84,0,0,1,5.56,5.07l.84-1.32-.84-4-5.49-5.08Z" transform="translate(-560.51 -331.99)"/><path class="cls-3" d="M660.93,365.73s2.41,8.25-8.81,19.83c0,0,26.69,2.13,43.47-1.67,0,0,10.29-2,11.86-3.05,0,0-29-3.8-45.23-15.57Z" transform="translate(-560.51 -331.99)"/><path class="cls-4" d="M689,383.06a155.84,155.84,0,0,1-35.13.74l3.15-4s16.78,3.61,30,3Z" transform="translate(-560.51 -331.99)"/><path class="cls-5" d="M703.93,381.67s-19.56-.28-42.45-10.57l-.92-5.56,3.15,1.12s16.59,10.19,42.63,13.81l-.56,1Z" transform="translate(-560.51 -331.99)"/><path class="cls-6" d="M655.25,381.55s-14.88-2.71-26.35,8.83c0,0-10.07,10.91,2.65,24.26l-.28.9-11.89-2.91s-8.55-13.7,1.39-23.57c0,0,9.18-10.08,35.66-9.31Z" transform="translate(-560.51 -331.99)"/><path class="cls-6" d="M661,370.64s-6.58-6.95-9.08-8.25c0,0-8-5.19-17-3.52,0,0-8.35,1.3-13.81,4.73,0,0-14.46,7.13-22.25,9.45,0,0-23.26,8.16-35-15.48a31.32,31.32,0,0,1,.46-22.52s3.43,16.87,14.37,19.65a15.36,15.36,0,0,1-1.58-9.64s9,10.1,20.21,10.75c0,0-3.15-5.1-3.15-9.08,0,0,9.91,9,29.84,1.95,0,0,24.47-3.9,36.79,16.86Z" transform="translate(-560.51 -331.99)"/><path class="cls-7" d="M653.37,362.86s-10.22-11.61-31.76-1.95c0,0-19.19,8.55-32.81-2.71,0,0,3.4,5.07,7.64,7.58,0,0-21.61,1.25-29.68-14.95,0,0,2,15.85,19.67,22.87a33.39,33.39,0,0,0,19.88-2.92l10.92-5.07s12.3-7.51,21.61-7l11.75,4.11Z" transform="translate(-560.51 -331.99)"/><path class="cls-7" d="M599.09,364.8s-9.94-.07-17.66-5.42c0,0,4.1,5.49,12.79,7.86l7.16-.49Z" transform="translate(-560.51 -331.99)"/><path class="cls-8" d="M653.51,359.52s-12.93-12.65-30.3-7.86c0,0-16.55,6.4-26.28-.9,0,0,7,10.08,26.76,2.85,0,0,14-5.28,28.92,5.56Z" transform="translate(-560.51 -331.99)"/><path class="cls-8" d="M579.07,349.23s7.85,10,23.07,9.18l1.12,1S586.71,361.19,579.07,349.23Z" transform="translate(-560.51 -331.99)"/><path class="cls-8" d="M564.12,340.89s2.71,14.39,19.53,17.38l.91,1.11A23.52,23.52,0,0,1,564.05,342Z" transform="translate(-560.51 -331.99)"/><path class="cls-7" d="M620.77,412.63S608.26,393,630.23,384.2l-.28.41s-18.91,11.47-2.09,30.24Z" transform="translate(-560.51 -331.99)"/><path d="M657.4,367.17s-4.24-7.86-16-9c0,0-8.9-.77-19.74,4.66,0,0-20.16,11.4-32,10.63,0,0-20.78-.07-25.72-21.06,0,0-1.87-7.16.28-13.49,0,0,1.81,15.09,19,18.84,0,0-4.59-4.38-4.73-9.8,0,0,10.15,10.71,23.36,10,0,0-5.15-4.1-6.26-9,0,0,8.27,8.48,26.41,2.16,0,0,22.32-8,38,14.94,0,0,15.08,11.26,44.07,15.23a31,31,0,0,1-8.14,1.18,68.81,68.81,0,0,1-13.48,2.15s-24.54,1.6-29.61.07c0,0-15.23-.76-20.58,12,0,0-4.45,11.05,5.08,17.65,0,0-16.41,2.23-29.06-9.87l-1.53.21s11.61,17.38,37.88,11.33c0,0-13.69-6.6-9.45-18.35,0,0,4-10.77,17.1-10.08a121.32,121.32,0,0,0,44.07-2.85s10.22-1,14.25-4.45c0,0-27.32-2.57-47.89-16.26,0,0-13.9-25.1-41.57-15.64,0,0-17,6.46-28.5-6,0,0-1,6.46,1.88,12,0,0-12.31-4.59-18.7-13.14a29.46,29.46,0,0,0,.83,10.63s-10.91-7.36-10.84-19.81c0,0-7,4.94-4.8,21.2,0,0,3.06,22.73,28.57,22.66l11.38-2.24s7.6-2.48,20.88-9.92c0,0,9.31-5.35,19.46-4.73C641.21,359,649.9,359.17,657.4,367.17Z" transform="translate(-560.51 -331.99)"/><path d="M659.63,365.29s4.59,6.46-7.86,19.74l.35.9s13.07-11.26,9-19.95Z" transform="translate(-560.51 -331.99)"/><path d="M696.19,382.53s-30.17.69-39.06-3.41l-.7,1.11s10,3.55,38.58,3Z" transform="translate(-560.51 -331.99)"/><path d="M601.52,372.1s-.77,2.5,1.74,2.16c0,0,6.18-.49,19.39-7.44,0,0,12.72-8.55,18.21-8.2a24.51,24.51,0,0,1,13.9,5.63,7.12,7.12,0,0,1,.56,6.95s-2.09,5.49-11.4,6a28.78,28.78,0,0,1-12.58-2.64S620.7,369.25,604,377a3.43,3.43,0,0,0-1.74,2.85s.35,27.11,21.62,39.69c0,0-33.57-9.46-40-44.84l7.65-.21Z" transform="translate(-560.51 -331.99)"/><path class="cls-9" d="M597.07,375.37s-6.3,1.57-10.29.65c0,0,2.87,19.55,19.56,32.34a51.6,51.6,0,0,1-13.72-28.91,46.88,46.88,0,0,0,7.51,15.94S595.86,384.36,597.07,375.37Z" transform="translate(-560.51 -331.99)"/><path class="cls-3" d="M639,361.05s5.25-1.11,13.18,8.93l-1.29-.62s-1.15,3.82-9,3.78c0,0-2.43-4.48-10.25-6.81a17,17,0,0,1,4.37.87s1-4.27,6.68-4.55A5.62,5.62,0,0,0,639,361.05Z" transform="translate(-560.51 -331.99)"/><path class="cls-10" d="M648.55,366.16c.91,1.68-.23,4.08-2.56,5.34s-5,.93-5.88-.75.23-4.08,2.56-5.35S647.63,364.47,648.55,366.16Z" transform="translate(-560.51 -331.99)"/><path d="M647.86,366.58c.75,1.38-.19,3.33-2.08,4.36s-4,.76-4.79-.62.18-3.32,2.08-4.36S647.11,365.21,647.86,366.58Z" transform="translate(-560.51 -331.99)"/><path class="cls-1" d="M645.45,365.73a1.3,1.3,0,1,1-1.3-1.3A1.3,1.3,0,0,1,645.45,365.73Z" transform="translate(-560.51 -331.99)"/></g></svg>